<?xml version="1.0" encoding="utf-8"?>
<!-- Generator: Adobe Illustrator 19.1.0, SVG Export Plug-In . SVG Version: 6.00 Build 0)  -->
<svg version="1.1" id="Layer_1" xmlns="http://www.w3.org/2000/svg" xmlns:xlink="http://www.w3.org/1999/xlink" x="0px" y="0px"
	 viewBox="0 0 330 80" style="enable-background:new 0 0 330 80;" xml:space="preserve">
<style type="text/css">
	.st0{fill:#FFFFFF;}
	.st1{fill:rgba(0,0,0,0.26);}
</style>
<g>
	<path class="st0" d="M19,44.4c-4.3-1.6-7.7-5.1-7.7-9.9c0-5.1,4.1-10,12.3-10c8.2,0,11.4,5,12,6.5c0,0-1.6,2.5-6.1,3.3
		c0,0-2.3-3.1-5.4-3.1c-1.7,0-3.3,1.1-3.3,2.6c0,1.1,0.5,2.3,2,2.8l4.4,1.6c7.3,2.7,9.1,6.6,9.1,11.4c0,4.5-4.4,10.7-13.3,10.7
		c-9.1,0-12.3-6.2-13-8.7c2.8-2,6.6-3,6.6-3s1.8,4.8,6.1,4.8c3,0,3.9-1.8,3.9-3.5c0-1.9-1-3-3.6-4L19,44.4z"/>
	<path class="st0" d="M44.1,34.2c0-3-2.5-1.9-2.5-1.9s-2-2.5-2.6-5.5c2.1-1.4,5.1-2.3,7.1-2.3c4,0,7.5,2.5,7.5,7.7v18
		c0,3.7,2.5,1.9,2.5,1.9c2.3,1.9,3,4.6,3,4.6s-2.4,3.8-7.6,3.8c-4.6,0-7.4-4-7.4-8V34.2z M43,13.9c0-3,2.3-5.4,5.3-5.4
		s5.4,2.4,5.4,5.4s-2.4,5.3-5.4,5.3S43,16.9,43,13.9z"/>
	<path class="st0" d="M100.1,38c0-4.7-1.7-6-4-6c-1.9,0-3.8,1.9-3.8,1.9v25.4c-2.5,0.7-4.1,0.8-5.2,0.8c-1.3,0-4.1-0.5-4.1-0.5V36.9
		c0-3-1.3-4.9-4-4.9c-1.4,0-2.5,0.5-3.2,1c-0.8,0.5-1.2,0.9-1.2,0.9v25.4c-2.5,0.7-4.1,0.8-5.4,0.8c-1.8,0-4.2-0.4-4.2-0.4V34.2
		c0-3-2.5-1.9-2.5-1.9s-2-2.5-2.6-5.5c2.1-1.4,5.1-2.3,7.1-2.3c3,0,4.8,1.5,5.8,3.4c1.5-1.7,4.4-3.4,7.8-3.4c4.8,0,7,1.8,9.1,3.8
		c1.8-2,4.9-3.8,8.1-3.8c5.5,0,11.7,2.4,11.7,13v12.6c0,3.5,2.5,1.9,2.5,1.9c2.3,1.9,3,4.6,3,4.6s-2.4,3.8-7.6,3.8
		c-4.6,0-7.4-4-7.4-8V38z"/>
	<path class="st0" d="M121.1,34.2c0-3-2.5-1.9-2.5-1.9s-2-2.5-2.6-5.5c2.1-1.4,5.1-2.3,7.1-2.3c2.1,0,4.3,0.6,5.9,3.4
		c2.4-2.1,5.4-3.4,8.5-3.4c6,0,15,4.5,15,18c0,13.1-9.4,18-15.6,18c-1.8,0-4.2-0.7-6.1-2.2v19.3c-2.7,0.7-4.4,0.8-5.6,0.8
		c-1.2,0-4.1-0.2-4.1-0.2V34.2z M130.7,50.9c1.1,1.1,3.1,2.1,5.3,2.1c3.5,0,6.2-2.9,6.2-10c0-6.6-2.5-11.6-6.5-11.6
		c-3.2,0-5,2.3-5,2.3V50.9z"/>
	<path class="st0" d="M159.1,13.7c0-3-2.5-1.9-2.5-1.9s-2-2.5-2.6-5.5c2.1-1.4,5.1-2.3,7.1-2.3c4,0,7.5,2.5,7.5,7.7v38.5
		c0,3.5,2.5,1.9,2.5,1.9c2.3,1.9,3,4.6,3,4.6s-2.4,3.8-7.6,3.8c-4.6,0-7.4-4-7.4-8V13.7z"/>
	<path class="st0" d="M179.8,34.6c-1.1-2.7-3.2-1.9-3.2-1.9s-2-2.5-2.6-5.5c2.1-1.4,5.2-2.3,7.1-2.3c3.1,0,5.3,1.5,6.4,4.6l4.5,13
		c1.3,3.7,2,7.8,2,7.8s0.8-4.4,2.1-7.8l6.7-17.9c4.8-0.1,7.7,2.2,7.7,2.2l-12.7,32.4c-3,7.4-8.4,14.8-14.4,20.8
		c-4.1-2-5.4-6.1-5.4-6.1c4.6-4.8,8.7-9.1,11.3-15.2L179.8,34.6z"/>
</g>
<g>
	<path class="st1" d="M233.1,44.4v15.1H230v-37h12.4c2,0,3.8,0.3,5.3,0.8c1.5,0.5,2.8,1.3,3.8,2.3c1,1,1.8,2.1,2.3,3.5
		c0.5,1.4,0.8,2.8,0.8,4.5c0,1.7-0.3,3.2-0.8,4.6c-0.5,1.3-1.3,2.5-2.3,3.4c-1,0.9-2.3,1.6-3.8,2.1c-1.5,0.5-3.3,0.7-5.3,0.7H233.1z
		 M233.1,41.8h9.3c1.6,0,3-0.2,4.2-0.6c1.2-0.4,2.1-1,2.8-1.7c0.7-0.7,1.3-1.6,1.6-2.6c0.3-1,0.5-2.1,0.5-3.2c0-1.1-0.2-2.2-0.5-3.2
		c-0.3-1-0.9-1.9-1.6-2.7c-0.7-0.8-1.7-1.4-2.8-1.8c-1.2-0.4-2.6-0.7-4.2-0.7h-9.3V41.8z"/>
	<path class="st1" d="M288.4,43c0,2.6-0.3,4.9-1,7c-0.7,2.1-1.6,3.9-2.8,5.3c-1.2,1.5-2.7,2.6-4.5,3.4c-1.7,0.8-3.7,1.2-5.8,1.2
		c-2.1,0-4.1-0.4-5.8-1.2c-1.7-0.8-3.2-1.9-4.5-3.4c-1.2-1.5-2.2-3.3-2.9-5.3c-0.7-2.1-1-4.4-1-7v-4c0-2.6,0.3-4.9,1-7
		c0.7-2.1,1.6-3.9,2.9-5.4c1.2-1.5,2.7-2.6,4.5-3.4c1.7-0.8,3.7-1.2,5.8-1.2c2.1,0,4.1,0.4,5.8,1.2c1.7,0.8,3.2,1.9,4.5,3.4
		c1.2,1.5,2.2,3.3,2.9,5.4c0.7,2.1,1,4.4,1,7V43z M285.3,39c0-2.2-0.2-4.2-0.7-5.9c-0.5-1.8-1.2-3.3-2.2-4.5
		c-0.9-1.2-2.1-2.2-3.5-2.8c-1.4-0.7-2.9-1-4.7-1c-1.7,0-3.3,0.3-4.6,1c-1.4,0.7-2.5,1.6-3.5,2.8c-1,1.2-1.7,2.7-2.2,4.5
		c-0.5,1.8-0.8,3.7-0.8,5.9v4c0,2.2,0.3,4.2,0.8,5.9c0.5,1.8,1.3,3.3,2.2,4.5c1,1.2,2.1,2.2,3.5,2.8c1.4,0.7,2.9,1,4.6,1
		c1.8,0,3.3-0.3,4.7-1c1.4-0.7,2.5-1.6,3.5-2.8c0.9-1.2,1.7-2.7,2.1-4.5c0.5-1.8,0.7-3.7,0.7-5.9V39z"/>
	<path class="st1" d="M316.7,50.4c0-1-0.2-1.9-0.5-2.7c-0.3-0.8-0.9-1.5-1.6-2.2c-0.8-0.7-1.8-1.2-3.1-1.8c-1.3-0.5-2.8-1.1-4.7-1.6
		c-1.8-0.5-3.5-1.1-4.9-1.7c-1.5-0.6-2.7-1.3-3.7-2.2c-1-0.8-1.8-1.8-2.4-2.9c-0.6-1.1-0.8-2.4-0.8-3.8c0-1.4,0.3-2.7,0.9-3.9
		s1.4-2.2,2.5-3c1.1-0.8,2.4-1.5,3.9-2c1.5-0.5,3.1-0.7,4.9-0.7c1.9,0,3.6,0.3,5.2,0.9c1.5,0.6,2.9,1.4,3.9,2.4
		c1.1,1,1.9,2.2,2.5,3.5c0.6,1.3,0.9,2.8,0.9,4.3h-3.1c0-1.2-0.2-2.3-0.6-3.3c-0.4-1-1-1.9-1.8-2.7c-0.8-0.7-1.8-1.3-2.9-1.8
		c-1.2-0.4-2.5-0.6-4-0.6c-1.5,0-2.8,0.2-4,0.5c-1.1,0.4-2.1,0.9-2.8,1.5c-0.8,0.6-1.3,1.3-1.7,2.2c-0.4,0.8-0.6,1.7-0.6,2.6
		c0,0.9,0.2,1.7,0.5,2.4c0.3,0.7,0.9,1.4,1.6,2.1c0.8,0.6,1.8,1.2,3,1.8c1.2,0.6,2.8,1.1,4.6,1.6c1.9,0.5,3.6,1.1,5.1,1.8
		c1.5,0.6,2.8,1.4,3.8,2.3c1,0.9,1.8,1.9,2.3,3c0.5,1.1,0.8,2.4,0.8,3.9c0,1.5-0.3,2.9-0.9,4.1c-0.6,1.2-1.5,2.2-2.6,3
		c-1.1,0.8-2.4,1.5-4,1.9c-1.5,0.4-3.2,0.7-5,0.7c-1.1,0-2.2-0.1-3.3-0.3c-1.1-0.2-2.1-0.5-3.1-0.9c-1-0.4-1.9-0.9-2.8-1.5
		c-0.9-0.6-1.6-1.3-2.3-2.1c-0.6-0.8-1.1-1.8-1.5-2.8c-0.4-1.1-0.6-2.2-0.6-3.5h3.1c0,1.6,0.3,2.9,0.9,3.9c0.6,1.1,1.4,1.9,2.4,2.6
		c1,0.7,2.1,1.1,3.4,1.4c1.2,0.3,2.5,0.4,3.7,0.4c1.4,0,2.7-0.2,3.9-0.5c1.2-0.3,2.1-0.8,3-1.4c0.8-0.6,1.5-1.3,1.9-2.2
		C316.5,52.4,316.7,51.4,316.7,50.4z"/>
</g>
</svg>
