<?xml version="1.0" encoding="utf-8"?>
<!-- Generator: Adobe Illustrator 16.0.0, SVG Export Plug-In . SVG Version: 6.00 Build 0)  -->
<!DOCTYPE svg PUBLIC "-//W3C//DTD SVG 1.1//EN" "http://www.w3.org/Graphics/SVG/1.1/DTD/svg11.dtd">
<svg version="1.1" id="Layer_1" xmlns="http://www.w3.org/2000/svg" xmlns:xlink="http://www.w3.org/1999/xlink" x="0px" y="0px"
	 width="113.645px" height="23.083px" viewBox="0 0 113.645 23.083" enable-background="new 0 0 113.645 23.083"
	 xml:space="preserve">
<g>
	<path fill="#FFFFFF" d="M45.717,5.51c0.792,0,1.561-0.013,2.328,0.011c0.121,0.005,0.269,0.153,0.348,0.273
		c0.117,0.175,0.183,0.383,0.249,0.535c1.023-0.297,1.983-0.631,2.971-0.849c0.694-0.151,1.424-0.174,2.14-0.203
		c0.87-0.033,1.538,0.373,1.982,1.056c1.013-0.3,1.968-0.65,2.955-0.854c0.773-0.159,1.59-0.186,2.386-0.184
		c0.947,0.004,1.639,0.521,1.956,1.392c0.23,0.632,0.396,1.325,0.405,1.992c0.045,2.826,0.016,5.651,0.03,8.479
		c0.002,0.396-0.143,0.485-0.496,0.477c-0.854-0.016-1.707-0.02-2.559,0.003c-0.393,0.01-0.515-0.117-0.511-0.517
		c0.017-2.44,0.012-4.885,0.009-7.326c0-0.948-0.396-1.283-1.33-1.048C57.97,8.9,57.385,9.15,56.783,9.351
		c-0.353,0.116-0.459,0.345-0.459,0.716c0.017,2.342,0,4.686,0.017,7.025c0.004,0.414-0.108,0.562-0.532,0.548
		c-0.834-0.027-1.674-0.027-2.508,0c-0.431,0.017-0.529-0.149-0.527-0.554c0.02-2.424,0.013-4.851,0.009-7.274
		c0-0.959-0.394-1.3-1.316-1.067c-0.627,0.158-1.229,0.415-1.842,0.62c-0.34,0.111-0.434,0.332-0.431,0.684
		c0.015,2.341-0.004,4.684,0.018,7.026c0.007,0.443-0.124,0.58-0.562,0.564c-0.853-0.029-1.706-0.012-2.56-0.006
		c-0.262,0-0.441-0.033-0.441-0.375c0.012-3.85,0.011-7.696,0.013-11.542C45.66,5.667,45.684,5.622,45.717,5.51z"/>
	<path fill="#FFFFFF" d="M97.346,0.004c0,0.233,0,0.396,0,0.561c0,5.482,0.117,10.965,0.133,16.445
		c0.001,0.469-0.041,0.654-0.542,0.631c-0.853-0.039-1.675-0.018-2.527-0.008c-0.3,0.002-0.39-0.105-0.39-0.412
		c0.009-5.499,0.016-11,0.019-16.497c0-0.051-0.104-0.098-0.086-0.225C95.08,0.34,96.285,0.178,97.346,0.004z"/>
	<path fill="#FFFFFF" d="M88.754,5.511c1.067,0,2.114-0.008,3.164,0.011c0.096,0.001,0.219,0.153,0.271,0.262
		c0.045,0.095,0.015,0.229,0.015,0.348c0.002,3.611,0.004,7.224,0.002,10.835c-0.002,0.66-0.004,0.66-0.67,0.664
		c-0.802,0.002-1.604-0.006-2.406,0.002c-0.281,0.002-0.43-0.068-0.43-0.393c0.01-3.812,0.006-7.629,0.01-11.439
		C88.709,5.722,88.732,5.644,88.754,5.511z"/>
	<path fill="#FFFFFF" d="M88.707,0.095c1.118,0,2.165-0.01,3.213,0.013c0.098,0.001,0.266,0.198,0.27,0.309
		c0.021,1.034,0.024,2.07-0.004,3.106c-0.002,0.12-0.227,0.335-0.349,0.338c-0.921,0.029-1.84,0.029-2.759,0.001
		c-0.129-0.003-0.35-0.209-0.354-0.324C88.695,2.417,88.707,1.298,88.707,0.095z"/>
	<path fill="#FFFFFF" d="M33.33,0.566c0-0.163,0-0.328,0-0.566c-1.587,0.173-2.646,0.336-3.706,0.505c0,1.709,0,3.356,0,5.054
		c-0.526-0.032-0.466-0.067-0.661-0.078c-1.047-0.067-2.107-0.204-3.152-0.172c-1.727,0.055-2.932,0.989-3.221,2.679
		c-0.412,2.408-0.422,4.86,0.016,7.269c0.258,1.434,1.233,2.312,2.729,2.568c1.061,0.182,2.058-0.012,3.034-0.387
		c0.539-0.205,1.055-0.467,1.6-0.715c0.069,0.145,0.152,0.258,0.176,0.382c0.094,0.45,0.371,0.562,0.801,0.534
		c0.53-0.035,1.072-0.04,1.604,0.002c0.501,0.041,0.699-0.159,0.699-0.627C33.229,11.532,33.33,6.049,33.33,0.566z M29.584,13.499
		c-0.006,0.166-0.062,0.393-0.178,0.482c-0.642,0.501-1.361,0.848-2.194,0.857c-0.81,0.01-1.287-0.455-1.296-1.264
		c-0.012-1.336-0.01-2.672,0-4.006c0.008-0.733,0.383-1.213,1.108-1.224c0.773-0.013,1.553,0.125,2.324,0.239
		c0.1,0.015,0.228,0.264,0.23,0.407c0.021,0.77,0.01,1.537,0.01,2.305C29.59,12.03,29.602,12.764,29.584,13.499z"/>
	<path fill="#FFFFFF" d="M10.734,9.311c-0.034-0.733-0.196-1.503-0.491-2.173C9.494,5.451,7.876,5,5.938,5.375
		C4.99,5.559,4.092,5.999,3.114,6.343c-0.062-0.144-0.13-0.369-0.251-0.557C2.789,5.666,2.627,5.524,2.504,5.52
		C1.689,5.499,1.057,5.51,0,5.51c0,5.889,0,11.704,0,17.573c1.057-0.164,2.115-0.324,3.703-0.49c0-1.686,0-3.313,0-4.985
		c0,0.011,0.233,0.019,0.359,0.024c1.028,0.089,2.018,0.242,3.046,0.248c1.744,0.004,2.933-0.897,3.399-2.481
		c0.149-0.506,0.234-1.043,0.244-1.571C10.791,12.321,10.811,10.813,10.734,9.311z M7.199,13.651
		c-0.013,0.678-0.466,1.174-1.132,1.168c-0.746-0.006-1.489-0.122-2.227-0.24c-0.123-0.02-0.287-0.297-0.295-0.461
		c-0.031-0.75-0.013-1.502-0.014-2.251c0-0.734-0.023-1.471,0.016-2.202c0.01-0.212,0.143-0.486,0.309-0.605
		C4.545,8.563,5.3,8.213,6.183,8.344c0.635,0.096,1.004,0.47,1.014,1.105C7.221,10.851,7.225,12.252,7.199,13.651z"/>
	<path fill="#FFFFFF" d="M87.326,8.112c-0.12-1.51-1.132-2.552-2.552-2.76c-0.782-0.117-1.514-0.067-2.307,0.02
		c-0.699,0.078-1.523,0.312-2.055,0.49c0-1.95,0-3.865,0-5.852c-1.058,0.149-2.164,0.289-3.156,0.416
		c-0.318,0.043-0.488,0.178-0.488,0.518c0.01,5.368-0.011,10.737-0.022,16.102c0,0.401,0.172,0.521,0.524,0.55
		c0.498,0.038,0.988,0.125,1.484,0.161c1.752,0.127,3.499,0.287,5.236-0.067c1.663-0.339,2.905-1.17,3.299-2.937
		c0.082-0.371,0.158-0.754,0.154-1.135C87.43,11.782,87.469,9.941,87.326,8.112z M83.869,13.53
		c-0.037,0.773-0.728,1.235-1.716,1.299c-0.482,0.03-0.969,0-1.452,0.004c-0.336,0.002-0.478-0.143-0.472-0.487
		c0.015-0.837,0.004-1.673,0.004-2.506c0-0.803-0.014-1.607,0.011-2.409c0.006-0.174,0.087-0.431,0.214-0.501
		c0.771-0.412,1.583-0.719,2.484-0.581c0.594,0.092,0.937,0.38,0.953,0.979C83.933,10.727,83.943,12.131,83.869,13.53z"/>
	<path fill="#FFFFFF" d="M75.504,11.575c0-0.621,0.012-1.239-0.002-1.859c-0.053-2.168-1.27-3.708-3.379-4.224
		c-1.451-0.353-2.921-0.341-4.367,0.035c-1.816,0.475-3.007,1.815-3.121,3.669c-0.097,1.596-0.111,3.207,0.01,4.799
		c0.127,1.735,1.104,2.949,2.779,3.508c1.662,0.556,3.357,0.554,5.029,0.062c1.617-0.477,2.631-1.584,2.924-3.242
		c0.156-0.896,0.125-1.828,0.177-2.744C75.539,11.575,75.521,11.575,75.504,11.575z M69.647,14.92
		c-1.023-0.109-1.562-0.742-1.566-1.795c-0.009-1.035-0.009-2.072,0-3.108c0.008-1.186,0.707-1.826,1.968-1.82
		c1.23,0.007,1.898,0.642,1.909,1.82c0.005,0.517,0,1.036,0,1.555c0,0.452-0.021,0.902,0.005,1.353
		C72.057,14.606,70.886,15.057,69.647,14.92z"/>
	<path fill="#FFFFFF" d="M107.867,14.614c-1.326,0.256-2.652,0.543-4.018,0.348c-1.097-0.151-1.374-0.471-1.515-1.57
		c-0.062-0.465,0.078-0.62,0.557-0.612c1.807,0.021,3.61,0.009,5.418,0.005c0.193,0,0.387-0.019,0.676-0.029
		c-0.06-1.384-0.02-2.731-0.201-4.043c-0.264-1.872-1.396-3.045-3.301-3.317c-0.82-0.117-1.662-0.116-2.495-0.08
		c-2.439,0.107-4.072,1.769-4.14,4.213c-0.035,1.405-0.03,2.81,0.008,4.214c0.052,1.844,1.162,3.319,2.929,3.825
		c2.258,0.646,4.493,0.317,6.698-0.344c0.111-0.035,0.25-0.272,0.231-0.396c-0.117-0.755-0.279-1.502-0.431-2.291
		C108.119,14.565,107.992,14.588,107.867,14.614z M103.054,8.225c0.591-0.327,1.606-0.303,2.054,0.08
		c0.57,0.491,0.496,1.149,0.443,1.866c-1.008,0-1.984,0.007-2.965-0.012c-0.092-0.003-0.234-0.179-0.254-0.291
		C102.219,9.218,102.545,8.51,103.054,8.225z"/>
	<path fill="#FFFFFF" d="M38.328,12.78c0.936,0.016,1.873,0.006,2.809,0.006c0.937,0,1.872-0.01,2.809,0.006
		c0.33,0.004,0.494-0.076,0.484-0.443c-0.026-1.069,0.009-2.141-0.05-3.207c-0.11-1.995-1.296-3.392-3.239-3.719
		c-0.893-0.149-1.83-0.155-2.738-0.099c-2.304,0.143-3.858,1.651-3.989,3.921c-0.085,1.545-0.069,3.103,0.004,4.651
		c0.087,1.857,1.211,3.21,3,3.697c2.234,0.607,4.434,0.273,6.602-0.373c0.115-0.036,0.25-0.301,0.23-0.438
		c-0.092-0.623-0.25-1.238-0.354-1.861c-0.055-0.334-0.172-0.387-0.503-0.316c-1.338,0.284-2.684,0.555-4.063,0.354
		c-1.06-0.152-1.469-0.649-1.473-1.717C37.856,12.881,37.99,12.776,38.328,12.78z M37.855,9.681
		c0.035-0.616,0.156-1.184,0.759-1.469c0.632-0.301,1.298-0.32,1.925,0.025c0.443,0.244,0.775,1.305,0.558,1.752
		c-0.051,0.099-0.138,0.179-0.265,0.187c-0.416,0.02-1.153,0.007-1.153,0.007v0.003c-0.529,0-0.832-0.013-1.199,0.004
		C38.105,10.206,37.831,10.099,37.855,9.681z"/>
	<path fill="#FFFFFF" d="M21.398,13.982c-0.024-1.886-0.014-3.776-0.108-5.658c-0.077-1.539-0.92-2.471-2.404-2.813
		c-1.721-0.396-3.451-0.296-5.178-0.05c-0.599,0.083-1.189,0.234-1.791,0.357c0.145,0.818,0.293,1.536,0.396,2.263
		c0.051,0.344,0.173,0.354,0.496,0.323c1.193-0.116,2.392-0.203,3.59-0.235c0.799-0.021,1.295,0.296,1.386,0.892
		c0.084,0.563,0.017,1.147,0.017,1.768c-1.051,0-2.069-0.013-3.087,0.004c-1.596,0.024-2.695,0.742-2.959,2.035
		c-0.141,0.68-0.156,1.396-0.114,2.09c0.117,1.855,1.339,2.957,3.19,2.935c1.197-0.013,2.28-0.445,3.355-0.981
		c0.415,0.723,0.415,0.723,1.287,0.723c0.501,0,1.001-0.014,1.503,0.002c0.326,0.012,0.437-0.115,0.431-0.439
		C21.391,16.124,21.412,15.053,21.398,13.982z M16.75,15.09c-0.32,0.066-0.666,0.066-0.996,0.047
		c-0.525-0.033-0.781-0.372-0.777-0.973c0.004-0.561,0.265-0.867,0.799-0.886c0.666-0.021,1.333-0.004,2.051-0.004
		c0.011,0.202,0.023,0.334,0.023,0.466C17.867,14.846,17.855,14.874,16.75,15.09z"/>
	<path fill="#FFFFFF" d="M111.484,1.904c-1.227-0.011-2.205,0.988-2.202,2.248c0.003,1.241,0.952,2.195,2.182,2.199
		c1.24,0.004,2.181-0.937,2.182-2.179C113.645,2.88,112.725,1.918,111.484,1.904z M111.436,6.113
		c-1.092-0.013-1.914-0.879-1.907-2.016c0.006-1.071,0.872-1.945,1.936-1.95c1.075-0.006,1.969,0.889,1.975,1.977
		C113.443,5.248,112.558,6.127,111.436,6.113z"/>
	<path fill="#FFFFFF" d="M112.166,4.312c0.103-0.36,0.304-0.677,0.226-0.9c-0.071-0.209-0.432-0.392-0.689-0.452
		c-0.328-0.077-0.601-0.02-1.129-0.02c0,0.204,0,0.368,0,0.533c0,0.535,0.008,1.069,0.021,1.605
		c0.001,0.085,0.113,0.167,0.167,0.251c0.06-0.082,0.138-0.159,0.178-0.25c0.026-0.056,0.007-0.131,0.01-0.198
		c0.016-0.522,0.247-0.71,0.719-0.483c0.202,0.098,0.295,0.419,0.436,0.64c0.064,0.104,0.128,0.212,0.192,0.317
		c0.062-0.035,0.127-0.073,0.188-0.109C112.365,4.89,112.242,4.533,112.166,4.312z M111.329,4.109
		c-0.38,0.077-0.374-0.204-0.385-0.515c-0.013-0.337,0.104-0.494,0.458-0.456c0.317,0.035,0.68,0.04,0.686,0.472
		C112.096,4.068,111.736,4.103,111.329,4.109z"/>
</g>
</svg>
